<svg xmlns="http://www.w3.org/2000/svg" viewBox="0 0 128 128">
  <rect width="128" height="128" fill="none"/>
  <path fill="#1572B6" d="M19 8h90l-8.2 93.2L64 120l-36.8-18.8L19 8z"/>
  <path fill="#33A9DC" d="M64 112.2l29.8-15.3L100.8 16H64v96.2z"/>
  <path fill="#FFF" d="M64 51.2h14.9l1-11.8H64V28h28.4l-.3 3.1-2.8 31.5H64V51.2zM64 80.5l.1.1 12.6-6.4.8-9.1h11.4l-1.6 16.9-23.2 11.8-.1-.1V80.5z"/>
  <path fill="#EBEBEB" d="M64 51.2v11.4H50.1l1.3 13.6L64 82.5v13.1L40.7 83.8l-.2-1.8-2.6-27.8-.3-3.1H64zM64 28v11.4H36.6l-.2-2.6-.5-5.7-.3-3.1H64z"/>
</svg>