<svg xmlns="http://www.w3.org/2000/svg" viewBox="0 0 128 128">
  <rect width="128" height="128" fill="none"/>
  <path fill="#FFFFFF" d="M64 10.7A53.3 53.3 0 0 0 47.1 114c2.7.5 3.6-1.2 3.6-2.6v-9.3c-15 3.3-18.2-6.4-18.2-6.4-2.4-6.2-6-7.9-6-7.9-4.9-3.3.4-3.2.4-3.2 5.4.4 8.3 5.6 8.3 5.6 4.8 8.2 12.6 5.8 15.7 4.4.5-3.5 1.9-5.8 3.4-7.2-12-1.4-24.6-6-24.6-26.7 0-5.9 2.1-10.7 5.6-14.5-.6-1.4-2.4-6.9.5-14.3 0 0 4.5-1.5 14.7 5.5a50.6 50.6 0 0 1 26.8 0C87.5 30.4 92 31.9 92 31.9c2.9 7.4 1.1 12.9.5 14.3 3.5 3.8 5.6 8.6 5.6 14.5 0 20.8-12.6 25.3-24.7 26.7 1.9 1.7 3.7 5 3.7 10.1v13.9c0 1.4.9 3.1 3.7 2.6A53.3 53.3 0 0 0 64 10.7z"/>
</svg>