<svg xmlns="http://www.w3.org/2000/svg" viewBox="0 0 128 128">
  <rect width="128" height="128" fill="none"/>
  <path fill="#4285F4" d="M116.6 65.3c0-4.1-.4-8.1-1.1-11.9H64v22.5h29.4c-1.3 7.2-5.2 13.3-11 17.4v14.4h17.8c10.4-9.6 16.4-23.7 16.4-42.4z"/>
  <path fill="#34A853" d="M64 118c14.9 0 27.4-4.9 36.5-13.3L82.7 90.3c-4.9 3.3-11.2 5.2-18.7 5.2-14.4 0-26.6-9.7-30.9-22.8H14.7v14.9C23.7 105.5 42.2 118 64 118z"/>
  <path fill="#FBBC05" d="M33.1 72.7A32.5 32.5 0 0 1 31.4 64c0-3 .6-5.9 1.6-8.7V40.4H14.7A53.8 53.8 0 0 0 9 64c0 8.5 2 16.5 5.7 23.6l18.4-14.9z"/>
  <path fill="#EA4335" d="M64 32.5c8.1 0 15.4 2.8 21.1 8.3l15.8-15.8C91.3 16.1 78.8 10 64 10 42.2 10 23.7 22.5 14.7 40.4l18.4 14.9C37.4 42.2 49.6 32.5 64 32.5z"/>
</svg>