<svg xmlns="http://www.w3.org/2000/svg" viewBox="0 0 128 128">
  <rect width="128" height="128" fill="none"/>
  <path fill="#E34F26" d="M19 8h90l-8.2 93.2L64 120l-36.8-18.8L19 8z"/>
  <path fill="#F06529" d="M64 112.2l29.8-15.3L100.8 16H64v96.2z"/>
  <path fill="#EBEBEB" d="M64 51.1H49.1l-1-11.7H64V28H35.6l.3 3.1 2.8 31.4H64V51.1zM64 80.5l-.1.1-12.6-6.4-.8-9.1H39.1l1.6 16.9 23.2 11.8.1-.1V80.5z"/>
  <path fill="#FFF" d="M64 51.1v11.4h13.9l-1.3 13.6L64 82.5v13.1l23.3-11.8.2-1.8 2.6-27.8.3-3.1H64zM64 28v11.4h27.4l.2-2.6.5-5.7.3-3.1H64z"/>
</svg>