<svg xmlns="http://www.w3.org/2000/svg" viewBox="0 0 128 128">
  <rect width="128" height="128" fill="none"/>
  <rect x="16" y="16" width="96" height="96" rx="8" fill="#F7DF1E"/>
  <path fill="#111" d="M43.5 93.5c2 3.3 4.6 5.7 9.2 5.7 3.9 0 6.4-1.9 6.4-4.6 0-3.2-2.5-4.3-6.8-6.2l-2.3-1c-6.8-2.9-11.3-6.5-11.3-14.2 0-7.1 5.4-12.5 13.8-12.5 6 0 10.3 2.1 13.4 7.5l-7.3 4.7c-1.6-2.9-3.3-4-6.1-4-2.8 0-4.5 1.8-4.5 4 0 2.8 1.8 3.9 5.8 5.7l2.3 1c8 3.4 12.4 6.9 12.4 14.7 0 8.4-6.6 13-15.5 13-8.7 0-14.3-4.1-17-9.5l7.5-4.3zM78.8 94.3c1.5 2.7 2.9 5 6.3 5 3.2 0 5.2-1.2 5.2-6V61.2h9.3v32.2c0 9.6-5.6 14-13.9 14-7.5 0-11.8-3.9-14-8.5l7.1-4.6z"/>
</svg>