<svg xmlns="http://www.w3.org/2000/svg" viewBox="0 0 128 128">
  <rect width="128" height="128" fill="none"/>
  <path fill="#3776AB" d="M63.7 13c-24.7 0-23.2 10.7-23.2 10.7l.1 11.1h23.5v3.4H31.2S16 36.5 16 61.4c0 24.8 13.3 23.9 13.3 23.9h7.9V74.1s-.4-13.3 13.1-13.3h23.3s13.1.2 13.1-12.6V26.9S88.7 13 63.7 13zm-13 7.5a4.2 4.2 0 1 1 0 8.4 4.2 4.2 0 0 1 0-8.4z"/>
  <path fill="#FFD43B" d="M64.3 115c24.7 0 23.2-10.7 23.2-10.7l-.1-11.1H63.9v-3.4h32.9S112 91.5 112 66.6c0-24.8-13.3-23.9-13.3-23.9h-7.9v11.2s.4 13.3-13.1 13.3H54.4s-13.1-.2-13.1 12.6v21.3S39.3 115 64.3 115zm13-7.5a4.2 4.2 0 1 1 0-8.4 4.2 4.2 0 0 1 0 8.4z"/>
</svg>