<svg xmlns="http://www.w3.org/2000/svg" viewBox="0 0 128 128">
  <rect width="128" height="128" fill="none"/>
  <ellipse cx="64" cy="25" rx="42" ry="15" fill="#1E88E5"/>
  <path fill="#1976D2" d="M22 25v50c0 8.3 18.8 15 42 15s42-6.7 42-15V25c0 8.3-18.8 15-42 15S22 33.3 22 25z"/>
  <path fill="#42A5F5" d="M22 49c0 8.3 18.8 15 42 15s42-6.7 42-15v13c0 8.3-18.8 15-42 15s-42-6.7-42-15V49z"/>
  <path fill="#64B5F6" d="M22 75c0 8.3 18.8 15 42 15s42-6.7 42-15v13c0 8.3-18.8 15-42 15s-42-6.7-42-15V75z"/>
</svg>